<svg width="24" height="25" viewBox="0 0 24 25" fill="none" xmlns="http://www.w3.org/2000/svg">
<path fill-rule="evenodd" clip-rule="evenodd" d="M10.5 4.2561C10.5 3.427 11.1709 2.7561 12 2.7561C12.8291 2.7561 13.5 3.427 13.5 4.2561C13.5 4.30258 13.4924 4.34753 13.4848 4.39205C13.4819 4.40928 13.479 4.42644 13.4766 4.4436C14.4397 4.69588 15.3022 5.19077 16.0093 5.85455C15.4784 6.00698 14.9927 6.2664 14.5771 6.60799C13.8862 6.09688 13.0506 5.78332 12.1406 5.7561H12C11.9627 5.7561 11.9257 5.75512 11.8889 5.75413C11.816 5.75219 11.7439 5.75026 11.6719 5.7561C9.33398 5.92603 7.5 7.87427 7.5 10.2561V17.0061C7.5 17.2698 7.44434 17.5188 7.35938 17.7561H16.6406C16.5557 17.5188 16.5 17.2698 16.5 17.0061V13.6527C16.7005 13.6836 16.906 13.6997 17.1152 13.6997C17.4193 13.6997 17.7154 13.6658 18 13.6015V17.0061C18 17.4309 18.3252 17.7561 18.75 17.7561H19.5V19.2561H14.1094C14.1943 19.4934 14.25 19.7424 14.25 20.0061C14.25 21.2395 13.2334 22.2561 12 22.2561C10.7666 22.2561 9.75 21.2395 9.75 20.0061C9.75 19.7424 9.80566 19.4934 9.89062 19.2561H4.5V17.7561H5.25C5.6748 17.7561 6 17.4309 6 17.0061V10.2561C6 7.46118 7.93066 5.10571 10.5234 4.4436C10.521 4.42644 10.5181 4.40928 10.5152 4.39205C10.5076 4.34753 10.5 4.30258 10.5 4.2561ZM12.75 20.0061C12.75 19.5842 12.4219 19.2561 12 19.2561C11.5781 19.2561 11.25 19.5842 11.25 20.0061C11.25 20.428 11.5781 20.7561 12 20.7561C12.4219 20.7561 12.75 20.428 12.75 20.0061Z" fill="black"/>
<circle cx="17.5634" cy="9.5" r="3.5" fill="#ED3900"/>
</svg>
