<svg width="16" height="17" viewBox="0 0 16 17" fill="none" xmlns="http://www.w3.org/2000/svg">
<g clip-path="url(#clip0_1022_343)">
<path d="M8 10.3511C9.10457 10.3511 10 9.45564 10 8.35107C10 7.2465 9.10457 6.35107 8 6.35107C6.89543 6.35107 6 7.2465 6 8.35107C6 9.45564 6.89543 10.3511 8 10.3511Z" stroke="white" stroke-linecap="round" stroke-linejoin="round"/>
<path d="M12.9334 10.3512C12.8446 10.5522 12.8181 10.7753 12.8574 10.9915C12.8966 11.2078 12.9997 11.4074 13.1534 11.5645L13.1934 11.6045C13.3173 11.7283 13.4157 11.8754 13.4828 12.0372C13.5499 12.1991 13.5844 12.3726 13.5844 12.5478C13.5844 12.723 13.5499 12.8965 13.4828 13.0584C13.4157 13.2203 13.3173 13.3673 13.1934 13.4912C13.0695 13.6151 12.9225 13.7135 12.7606 13.7806C12.5987 13.8477 12.4252 13.8822 12.25 13.8822C12.0748 13.8822 11.9013 13.8477 11.7394 13.7806C11.5776 13.7135 11.4305 13.6151 11.3067 13.4912L11.2667 13.4512C11.1096 13.2975 10.91 13.1944 10.6937 13.1552C10.4775 13.1159 10.2544 13.1424 10.0534 13.2312C9.85618 13.3157 9.68801 13.456 9.56956 13.6348C9.45111 13.8137 9.38754 14.0233 9.38669 14.2378V14.3512C9.38669 14.7048 9.24621 15.0439 8.99616 15.294C8.74611 15.544 8.40698 15.6845 8.05335 15.6845C7.69973 15.6845 7.36059 15.544 7.11055 15.294C6.8605 15.0439 6.72002 14.7048 6.72002 14.3512V14.2912C6.71486 14.0705 6.64343 13.8565 6.51503 13.677C6.38662 13.4974 6.20718 13.3607 6.00002 13.2845C5.79894 13.1957 5.57589 13.1693 5.35963 13.2085C5.14337 13.2477 4.94381 13.3508 4.78669 13.5045L4.74669 13.5445C4.62286 13.6685 4.47581 13.7668 4.31394 13.8339C4.15208 13.901 3.97857 13.9355 3.80335 13.9355C3.62813 13.9355 3.45463 13.901 3.29277 13.8339C3.1309 13.7668 2.98385 13.6685 2.86002 13.5445C2.73605 13.4207 2.63771 13.2736 2.57061 13.1117C2.50351 12.9499 2.46897 12.7764 2.46897 12.6012C2.46897 12.4259 2.50351 12.2524 2.57061 12.0906C2.63771 11.9287 2.73605 11.7817 2.86002 11.6578L2.90002 11.6178C3.05371 11.4607 3.15681 11.2611 3.19602 11.0449C3.23524 10.8286 3.20876 10.6056 3.12002 10.4045C3.03551 10.2073 2.89519 10.0391 2.71633 9.92069C2.53747 9.80224 2.32788 9.73868 2.11335 9.73782H2.00002C1.6464 9.73782 1.30726 9.59735 1.05721 9.3473C0.807163 9.09725 0.666687 8.75811 0.666687 8.40449C0.666687 8.05087 0.807163 7.71173 1.05721 7.46168C1.30726 7.21163 1.6464 7.07116 2.00002 7.07116H2.06002C2.28068 7.06599 2.49469 6.99457 2.67422 6.86616C2.85375 6.73776 2.9905 6.55831 3.06669 6.35116C3.15543 6.15008 3.1819 5.92703 3.14269 5.71076C3.10348 5.4945 3.00038 5.29494 2.84669 5.13782L2.80669 5.09782C2.68272 4.97399 2.58437 4.82694 2.51727 4.66508C2.45018 4.50321 2.41564 4.32971 2.41564 4.15449C2.41564 3.97927 2.45018 3.80577 2.51727 3.6439C2.58437 3.48204 2.68272 3.33499 2.80669 3.21116C2.93052 3.08719 3.07757 2.98884 3.23943 2.92174C3.4013 2.85464 3.5748 2.82011 3.75002 2.82011C3.92524 2.82011 4.09874 2.85464 4.26061 2.92174C4.42247 2.98884 4.56952 3.08719 4.69335 3.21116L4.73335 3.25116C4.89047 3.40485 5.09003 3.50795 5.30629 3.54716C5.52256 3.58637 5.74561 3.5599 5.94669 3.47116H6.00002C6.1972 3.38665 6.36537 3.24633 6.48382 3.06747C6.60227 2.88861 6.66583 2.67901 6.66669 2.46449V2.35116C6.66669 1.99753 6.80716 1.6584 7.05721 1.40835C7.30726 1.1583 7.6464 1.01782 8.00002 1.01782C8.35364 1.01782 8.69278 1.1583 8.94283 1.40835C9.19288 1.6584 9.33335 1.99753 9.33335 2.35116V2.41116C9.33421 2.62568 9.39778 2.83527 9.51623 3.01413C9.63468 3.19299 9.80284 3.33331 10 3.41782C10.2011 3.50657 10.4242 3.53304 10.6404 3.49383C10.8567 3.45461 11.0562 3.35151 11.2134 3.19782L11.2534 3.15782C11.3772 3.03385 11.5242 2.93551 11.6861 2.86841C11.848 2.80131 12.0215 2.76677 12.1967 2.76677C12.3719 2.76677 12.5454 2.80131 12.7073 2.86841C12.8691 2.93551 13.0162 3.03385 13.14 3.15782C13.264 3.28165 13.3623 3.4287 13.4294 3.59057C13.4965 3.75243 13.5311 3.92594 13.5311 4.10116C13.5311 4.27638 13.4965 4.44988 13.4294 4.61174C13.3623 4.77361 13.264 4.92066 13.14 5.04449L13.1 5.08449C12.9463 5.24161 12.8432 5.44117 12.804 5.65743C12.7648 5.87369 12.7913 6.09675 12.88 6.29782V6.35116C12.9645 6.54834 13.1049 6.7165 13.2837 6.83495C13.4626 6.9534 13.6722 7.01697 13.8867 7.01782H14C14.3536 7.01782 14.6928 7.1583 14.9428 7.40835C15.1929 7.6584 15.3334 7.99753 15.3334 8.35116C15.3334 8.70478 15.1929 9.04392 14.9428 9.29397C14.6928 9.54401 14.3536 9.68449 14 9.68449H13.94C13.7255 9.68535 13.5159 9.74891 13.337 9.86736C13.1582 9.98581 13.0179 10.154 12.9334 10.3512V10.3512Z" stroke="white" stroke-linecap="round" stroke-linejoin="round"/>
</g>
<defs>
<clipPath id="clip0_1022_343">
<rect width="16" height="16" fill="white" transform="translate(0 0.351074)"/>
</clipPath>
</defs>
</svg>
