<svg width="34" height="20" viewBox="0 0 34 20" fill="none" xmlns="http://www.w3.org/2000/svg">
<path fill-rule="evenodd" clip-rule="evenodd" d="M0.333252 0H33.6669V1.53848H0.333252V0ZM0.333252 3.07695H33.6669V4.61543H0.333252V3.07695ZM0.333252 6.15391H33.6669V7.69238H0.333252V6.15391ZM0.333252 9.23086H33.6669V10.7693H0.333252V9.23086ZM0.333252 12.3078H33.6669V13.8463H0.333252V12.3078ZM0.333252 15.3848H33.6669V16.9232H0.333252V15.3848ZM0.333252 18.4617H33.6669V20.0002H0.333252V18.4617Z" fill="#BD3D44"/>
<path fill-rule="evenodd" clip-rule="evenodd" d="M0.333252 1.53857H33.6669V3.07705H0.333252V1.53857ZM0.333252 4.61553H33.6669V6.154H0.333252V4.61553ZM0.333252 7.69248H33.6669V9.23096H0.333252V7.69248ZM0.333252 10.7694H33.6669V12.3079H0.333252V10.7694ZM0.333252 13.8464H33.6669V15.3849H0.333252V13.8464ZM0.333252 16.9233H33.6669V18.4618H0.333252V16.9233Z" fill="white"/>
<path fill-rule="evenodd" clip-rule="evenodd" d="M0.333252 0H13.6667V10.7693H0.333252V0Z" fill="#192F5D"/>
<path fill-rule="evenodd" clip-rule="evenodd" d="M1.43988 0.46167L1.57484 0.892443H1.95271L1.64231 1.15398L1.76377 1.56937L1.43988 1.30783L1.14298 1.56937L1.26444 1.15398L0.940552 0.892443H1.34541L1.43988 0.46167ZM3.66662 0.46167L3.78808 0.892443H4.17945L3.85556 1.15398L3.99051 1.56937L3.66662 1.30783L3.34273 1.56937L3.47769 1.15398L3.1538 0.892443H3.54517L3.66662 0.46167ZM5.89337 0.46167L6.01483 0.892443H6.40619L6.0823 1.15398L6.21726 1.56937L5.89337 1.30783L5.56948 1.56937L5.70443 1.15398L5.38054 0.892443H5.77191L5.89337 0.46167ZM8.10661 0.46167L8.24157 0.892443H8.61944L8.30905 1.15398L8.4305 1.56937L8.10661 1.30783L7.79622 1.56937L7.91768 1.15398L7.59379 0.892443H7.99865L8.10661 0.46167ZM10.3334 0.46167L10.4548 0.892443H10.8462L10.5223 1.15398L10.6572 1.56937L10.3199 1.30783L10.0095 1.56937L10.1309 1.15398L9.80704 0.892443H10.1984L10.3334 0.46167ZM12.5601 0.46167L12.6816 0.892443H13.0729L12.749 1.15398L12.884 1.56937L12.5601 1.30783L12.2362 1.56937L12.3712 1.15398L12.0473 0.892443H12.4386L12.5601 0.46167ZM2.56 1.5386L2.68146 1.96938H3.07283L2.74894 2.23092L2.88389 2.64631L2.56 2.38477L2.23611 2.64631L2.37107 2.23092L2.04718 1.96938H2.43854L2.56 1.5386ZM4.77325 1.5386L4.9082 1.96938H5.28607L4.97568 2.23092L5.09714 2.64631L4.77325 2.38477L4.46285 2.64631L4.58431 2.23092L4.26042 1.96938H4.66528L4.77325 1.5386ZM6.99999 1.5386L7.12145 1.96938H7.51282L7.18893 2.23092L7.32388 2.64631L6.99999 2.38477L6.6761 2.64631L6.81105 2.23092L6.48716 1.96938H6.87853L6.99999 1.5386ZM9.22673 1.5386L9.34819 1.96938H9.73956L9.41567 2.23092L9.55062 2.64631L9.22673 2.38477L8.90284 2.64631L9.0378 2.23092L8.71391 1.96938H9.10527L9.22673 1.5386ZM11.44 1.5386L11.5749 1.96938H11.9393L11.6289 2.23092L11.7504 2.64631L11.4265 2.38477L11.1161 2.64631L11.2375 2.23092L10.9137 1.96938H11.3185L11.44 1.5386ZM1.45338 2.61554L1.56134 3.04631H1.9662L1.64231 3.30785L1.76377 3.72324L1.43988 3.4617L1.14298 3.72324L1.26444 3.30785L0.940552 3.04631H1.34541L1.45338 2.61554ZM3.66662 2.61554L3.78808 3.04631H4.17945L3.86906 3.30785L3.99051 3.72324L3.66662 3.4617L3.35623 3.72324L3.47769 3.30785L3.1538 3.04631H3.54517L3.66662 2.61554ZM5.89337 2.61554L6.01483 3.04631H6.40619L6.0823 3.30785L6.21726 3.72324L5.89337 3.4617L5.56948 3.72324L5.70443 3.30785L5.38054 3.04631H5.77191L5.89337 2.61554ZM8.10661 2.61554L8.24157 3.04631H8.61944L8.30905 3.30785L8.4305 3.72324L8.10661 3.4617L7.79622 3.72324L7.91768 3.30785L7.59379 3.04631H7.99865L8.10661 2.61554ZM10.3334 2.61554L10.4548 3.04631H10.8462L10.5358 3.30785L10.6572 3.72324L10.3334 3.4617L10.023 3.72324L10.1444 3.30785L9.82053 3.04631H10.2119L10.3334 2.61554ZM12.5601 2.61554L12.6816 3.04631H13.0729L12.749 3.30785L12.884 3.72324L12.5601 3.4617L12.2362 3.72324L12.3712 3.30785L12.0473 3.04631H12.4386L12.5601 2.61554ZM2.56 3.69247L2.68146 4.12324H3.07283L2.74894 4.38479L2.88389 4.80017L2.56 4.53863L2.23611 4.80017L2.37107 4.38479L2.04718 4.12324H2.43854L2.56 3.69247ZM4.77325 3.69247L4.9082 4.12324H5.28607L4.97568 4.38479L5.09714 4.80017L4.77325 4.53863L4.46285 4.80017L4.58431 4.38479L4.26042 4.12324H4.66528L4.77325 3.69247ZM6.99999 3.69247L7.12145 4.12324H7.51282L7.20242 4.38479L7.32388 4.80017L6.99999 4.53863L6.6896 4.80017L6.81105 4.38479L6.48716 4.12324H6.87853L6.99999 3.69247ZM9.22673 3.69247L9.34819 4.12324H9.73956L9.41567 4.38479L9.55062 4.80017L9.22673 4.53863L8.90284 4.80017L9.0378 4.38479L8.71391 4.12324H9.10527L9.22673 3.69247ZM11.44 3.69247L11.5749 4.12324H11.9393L11.6289 4.38479L11.7504 4.80017L11.4265 4.53863L11.1161 4.80017L11.2375 4.38479L10.9137 4.12324H11.3185L11.44 3.69247ZM1.45338 4.7694L1.56134 5.20018H1.9662L1.64231 5.46172L1.76377 5.87711L1.43988 5.61557L1.14298 5.87711L1.26444 5.46172L0.940552 5.20018H1.34541L1.45338 4.7694ZM3.66662 4.7694L3.78808 5.20018H4.17945L3.86906 5.46172L3.99051 5.87711L3.66662 5.61557L3.35623 5.87711L3.47769 5.46172L3.1538 5.20018H3.54517L3.66662 4.7694ZM5.89337 4.7694L6.01483 5.20018H6.40619L6.0823 5.46172L6.21726 5.87711L5.89337 5.61557L5.56948 5.87711L5.70443 5.46172L5.38054 5.20018H5.77191L5.89337 4.7694ZM8.10661 4.7694L8.24157 5.20018H8.61944L8.30905 5.46172L8.4305 5.87711L8.10661 5.61557L7.79622 5.87711L7.91768 5.46172L7.59379 5.20018H7.99865L8.10661 4.7694ZM10.3334 4.7694L10.4548 5.20018H10.8462L10.5358 5.46172L10.6572 5.87711L10.3334 5.61557L10.023 5.87711L10.1444 5.46172L9.82053 5.20018H10.2119L10.3334 4.7694ZM12.5601 4.7694L12.6816 5.20018H13.0729L12.749 5.46172L12.884 5.87711L12.5601 5.61557L12.2362 5.87711L12.3712 5.46172L12.0473 5.20018H12.4386L12.5601 4.7694ZM2.56 5.84634L2.68146 6.27711H3.07283L2.74894 6.53865L2.88389 6.95404L2.56 6.6925L2.23611 6.95404L2.37107 6.53865L2.04718 6.27711H2.43854L2.56 5.84634ZM4.77325 5.84634L4.9082 6.27711H5.28607L4.97568 6.53865L5.09714 6.95404L4.77325 6.6925L4.46285 6.95404L4.58431 6.53865L4.26042 6.27711H4.66528L4.77325 5.84634ZM6.99999 5.84634L7.12145 6.27711H7.51282L7.20242 6.53865L7.32388 6.95404L6.99999 6.6925L6.6896 6.95404L6.81105 6.53865L6.48716 6.27711H6.87853L6.99999 5.84634ZM9.22673 5.84634L9.34819 6.27711H9.73956L9.41567 6.53865L9.55062 6.95404L9.22673 6.6925L8.90284 6.95404L9.0378 6.53865L8.71391 6.27711H9.10527L9.22673 5.84634ZM11.44 5.84634L11.5749 6.27711H11.9393L11.6289 6.53865L11.7504 6.95404L11.4265 6.6925L11.1161 6.95404L11.2375 6.53865L10.9137 6.27711H11.3185L11.44 5.84634ZM1.45338 6.92327L1.56134 7.35405H1.9662L1.64231 7.61559L1.76377 8.03098L1.43988 7.76943L1.14298 8.03098L1.26444 7.61559L0.940552 7.35405H1.34541L1.45338 6.92327ZM3.66662 6.92327L3.78808 7.35405H4.17945L3.86906 7.61559L3.99051 8.03098L3.66662 7.76943L3.35623 8.03098L3.47769 7.61559L3.1538 7.35405H3.54517L3.66662 6.92327ZM5.89337 6.92327L6.01483 7.35405H6.40619L6.0823 7.61559L6.21726 8.03098L5.89337 7.76943L5.56948 8.03098L5.70443 7.61559L5.38054 7.35405H5.77191L5.89337 6.92327ZM8.10661 6.92327L8.24157 7.35405H8.61944L8.30905 7.61559L8.4305 8.03098L8.10661 7.76943L7.79622 8.03098L7.91768 7.61559L7.59379 7.35405H7.99865L8.10661 6.92327ZM10.3334 6.92327L10.4548 7.35405H10.8462L10.5358 7.61559L10.6572 8.03098L10.3334 7.76943L10.023 8.03098L10.1444 7.61559L9.82053 7.35405H10.2119L10.3334 6.92327ZM12.5601 6.92327L12.6816 7.35405H13.0729L12.749 7.61559L12.884 8.03098L12.5601 7.76943L12.2362 8.03098L12.3712 7.61559L12.0473 7.35405H12.4386L12.5601 6.92327ZM2.56 8.00021L2.68146 8.43098H3.07283L2.74894 8.69252L2.88389 9.10791L2.56 8.84637L2.23611 9.10791L2.37107 8.69252L2.04718 8.43098H2.43854L2.56 8.00021ZM4.77325 8.00021L4.9082 8.43098H5.28607L4.97568 8.69252L5.09714 9.10791L4.77325 8.84637L4.46285 9.10791L4.58431 8.69252L4.26042 8.43098H4.66528L4.77325 8.00021ZM6.99999 8.00021L7.12145 8.43098H7.51282L7.20242 8.69252L7.32388 9.10791L6.99999 8.84637L6.6896 9.10791L6.81105 8.69252L6.48716 8.43098H6.87853L6.99999 8.00021ZM9.22673 8.00021L9.34819 8.43098H9.73956L9.41567 8.69252L9.55062 9.10791L9.22673 8.84637L8.90284 9.10791L9.0378 8.69252L8.71391 8.43098H9.10527L9.22673 8.00021ZM11.44 8.00021L11.5749 8.43098H11.9393L11.6289 8.69252L11.7504 9.10791L11.4265 8.84637L11.1161 9.10791L11.2375 8.69252L10.9137 8.43098H11.3185L11.44 8.00021ZM1.45338 9.07714L1.56134 9.50791H1.9662L1.64231 9.76945L1.76377 10.1848L1.43988 9.9233L1.14298 10.1848L1.26444 9.76945L0.940552 9.50791H1.34541L1.45338 9.07714ZM3.66662 9.07714L3.78808 9.50791H4.17945L3.86906 9.76945L3.99051 10.1848L3.66662 9.9233L3.35623 10.1848L3.47769 9.76945L3.1538 9.50791H3.54517L3.66662 9.07714ZM5.89337 9.07714L6.01483 9.50791H6.40619L6.0823 9.76945L6.21726 10.1848L5.89337 9.9233L5.56948 10.1848L5.70443 9.76945L5.38054 9.50791H5.77191L5.89337 9.07714ZM8.10661 9.07714L8.24157 9.50791H8.61944L8.30905 9.76945L8.4305 10.1848L8.10661 9.9233L7.79622 10.1848L7.91768 9.76945L7.59379 9.50791H7.99865L8.10661 9.07714ZM10.3334 9.07714L10.4548 9.50791H10.8462L10.5358 9.76945L10.6572 10.1848L10.3334 9.9233L10.023 10.1848L10.1444 9.76945L9.82053 9.50791H10.2119L10.3334 9.07714ZM12.5601 9.07714L12.6816 9.50791H13.0729L12.749 9.76945L12.884 10.1848L12.5601 9.9233L12.2362 10.1848L12.3712 9.76945L12.0473 9.50791H12.4386L12.5601 9.07714Z" fill="white"/>
</svg>
