<svg width="33" height="20" viewBox="0 0 33 20" fill="none" xmlns="http://www.w3.org/2000/svg">
<g clip-path="url(#clip0_530_101541)">
<path d="M0 0H33V20H0V0Z" fill="#20603D"/>
<path d="M0 0H33V15H0V0Z" fill="#FAD201"/>
<path d="M0 0H33V10H0V0Z" fill="#00A1DE"/>
<path d="M29.4524 5.22675L25.7675 5.35731L29.2691 6.06285L25.6575 5.61008L28.742 6.83784L25.4421 5.8323L27.8896 7.50727L25.135 6.02118L26.7942 8.02115L24.7638 6.15174L25.5063 8.33781L24.3467 6.2184L24.1313 8.4517L24.0854 5.19897L29.4524 5.22675Z" fill="#E5BE01"/>
<path d="M29.4524 5.22662L25.7675 5.09606L29.2691 4.39052L25.6575 4.84329L28.742 3.61553L25.4421 4.62107L27.8896 2.9461L25.135 4.43219L26.7942 2.43222L24.7638 4.30163L25.5063 2.11555L24.3467 4.23497L24.1313 2.00167L24.0854 5.25439L29.4524 5.22662Z" fill="#E5BE01"/>
<path d="M18.81 5.22675L22.4949 5.35731L18.9933 6.06285L22.6049 5.61008L19.5204 6.83784L22.8204 5.8323L20.3729 7.50727L23.1274 6.02118L21.4683 8.02115L23.4987 6.15174L22.7562 8.33781L23.9158 6.2184L24.1312 8.4517L24.177 5.19897L18.81 5.22675Z" fill="#E5BE01"/>
<path d="M18.81 5.22662L22.4949 5.09606L18.9933 4.39052L22.6049 4.84329L19.5204 3.61553L22.8204 4.62107L20.3729 2.9461L23.1274 4.43219L21.4683 2.43222L23.4987 4.30163L22.7562 2.11555L23.9158 4.23497L24.1312 2.00167L24.177 5.25439L18.81 5.22662Z" fill="#E5BE01"/>
<path d="M24.1313 6.17945C24.9995 6.17945 25.7033 5.75289 25.7033 5.22669C25.7033 4.70049 24.9995 4.27393 24.1313 4.27393C23.263 4.27393 22.5592 4.70049 22.5592 5.22669C22.5592 5.75289 23.263 6.17945 24.1313 6.17945Z" fill="#E5BE01" stroke="#00A1DE" stroke-width="2.41774"/>
</g>
<defs>
<clipPath id="clip0_530_101541">
<rect width="33" height="20" fill="white"/>
</clipPath>
</defs>
</svg>
