<svg width="18" height="18" viewBox="0 0 18 18" fill="none" xmlns="http://www.w3.org/2000/svg">
<path d="M9 0C6.1084 0 3.75 2.3584 3.75 5.25C3.75 7.03418 4.6582 8.61328 6.02344 9.5625C2.94434 10.7637 0.75 13.7637 0.75 17.25H2.25C2.25 13.9512 4.64355 11.1943 7.78125 10.6172L8.25 12H9.75L10.2188 10.6172C13.3564 11.1943 15.75 13.9512 15.75 17.25H17.25C17.25 13.7637 15.0557 10.7637 11.9766 9.5625C13.3418 8.61328 14.25 7.03418 14.25 5.25C14.25 2.3584 11.8916 0 9 0ZM9 1.5C11.0801 1.5 12.75 3.16992 12.75 5.25C12.75 7.33008 11.0801 9 9 9C6.91992 9 5.25 7.33008 5.25 5.25C5.25 3.16992 6.91992 1.5 9 1.5ZM8.25 12.75L7.5 17.25H10.5L9.75 12.75H8.25Z" fill="white"/>
</svg>
