<svg width="18" height="18" viewBox="0 0 18 18" fill="none" xmlns="http://www.w3.org/2000/svg">
<path d="M9 0.909424C4.52002 0.909424 0.875 4.55444 0.875 9.03442C0.875 13.5144 4.52002 17.1594 9 17.1594C13.48 17.1594 17.125 13.5144 17.125 9.03442C17.125 4.55444 13.48 0.909424 9 0.909424ZM9 2.15942C12.8037 2.15942 15.875 5.23071 15.875 9.03442C15.875 12.8381 12.8037 15.9094 9 15.9094C5.19629 15.9094 2.125 12.8381 2.125 9.03442C2.125 5.23071 5.19629 2.15942 9 2.15942ZM8.375 5.28442V8.40942H5.25V9.65942H8.375V12.7844H9.625V9.65942H12.75V8.40942H9.625V5.28442H8.375Z" fill="white"/>
</svg>
