<svg width="33" height="20" viewBox="0 0 33 20" fill="none" xmlns="http://www.w3.org/2000/svg">
<path fill-rule="evenodd" clip-rule="evenodd" d="M0 13.3325H33V16.6667H0V13.3325Z" fill="#FFE700"/>
<path fill-rule="evenodd" clip-rule="evenodd" d="M0 9.99854H33V13.3327H0V9.99854Z" fill="black"/>
<path fill-rule="evenodd" clip-rule="evenodd" d="M0 6.66821H33V9.99835H0V6.66821Z" fill="#DE3908"/>
<path fill-rule="evenodd" clip-rule="evenodd" d="M0 3.33423H33V6.6684H0V3.33423Z" fill="#FFE700"/>
<path fill-rule="evenodd" clip-rule="evenodd" d="M0 0H33V3.33417H0V0Z" fill="black"/>
<path fill-rule="evenodd" clip-rule="evenodd" d="M19.9286 9.99848C19.9286 10.8245 19.5676 11.6166 18.9251 12.2007C18.2825 12.7848 17.411 13.1129 16.5022 13.1129C15.5935 13.1129 14.722 12.7848 14.0794 12.2007C13.4368 11.6166 13.0758 10.8245 13.0758 9.99848C13.0758 9.17247 13.4368 8.3803 14.0794 7.79623C14.722 7.21216 15.5935 6.88403 16.5022 6.88403C17.411 6.88403 18.2825 7.21216 18.9251 7.79623C19.5676 8.3803 19.9286 9.17247 19.9286 9.99848Z" fill="#FFFDFF" stroke="black" stroke-width="0.92889"/>
<path fill-rule="evenodd" clip-rule="evenodd" d="M15.8968 7.61175L15.675 7.24084C15.7638 7.1602 15.9057 7.10376 16.1363 7.10376L16.1142 7.50692L15.8968 7.61175Z" fill="#DE3108" stroke="black" stroke-width="0.92889"/>
<path fill-rule="evenodd" clip-rule="evenodd" d="M16.1141 7.51506L16.1407 7.10383C16.1407 7.10383 16.602 7.07964 16.8503 7.34976L16.6064 7.67229L16.1096 7.51103L16.1141 7.51506Z" fill="#FFE700" stroke="black" stroke-width="0.92889"/>
<path fill-rule="evenodd" clip-rule="evenodd" d="M16.6154 7.66823L16.8416 7.3457C16.9924 7.49084 17.0545 7.59566 17.0811 7.74887C17.0811 7.75693 16.7218 7.8295 16.7218 7.8295L16.6154 7.66823Z" fill="#DE3108" stroke="black" stroke-width="0.92889"/>
<path fill-rule="evenodd" clip-rule="evenodd" d="M16.0121 12.9375C16.0121 12.9375 16.4379 12.4941 17.2629 12.5868C17.1387 12.4054 16.7351 12.4255 16.7351 12.4255C16.7351 12.4255 16.6109 11.5627 16.7085 11.5224C16.806 11.4821 17.2185 11.5224 17.2185 11.5224C17.2762 11.5224 17.3694 11.3894 17.294 11.3047C17.2185 11.2201 17.0012 10.8935 17.0899 10.829C17.1786 10.7645 17.6665 10.8653 17.6665 10.8653L16.2915 9.26068C16.2915 9.26068 16.1496 8.65594 16.4335 8.36969C16.7706 8.11167 16.7351 7.83751 16.7262 7.84155C16.6819 7.55933 16.2117 7.35775 15.8923 7.61577C15.706 7.82139 15.8302 7.97862 15.8302 7.97862C15.8302 7.97862 15.3423 8.09957 15.3202 8.1802C15.3024 8.25277 15.8746 8.16408 15.8746 8.16408L15.8214 8.51886C15.8214 8.51886 14.7036 9.44614 15.5552 10.2404C15.5685 10.2404 15.5863 10.2041 15.5863 10.2041C15.5863 10.2041 15.8879 10.5427 16.2028 10.6153C16.5 10.8935 16.469 10.8491 16.469 10.8491C16.469 10.8491 16.531 11.2846 16.4734 11.3733C16.1613 11.3381 15.8458 11.3354 15.5331 11.3652C15.431 11.3934 15.0407 11.3773 15.1339 11.9538L15.2758 11.6595C15.2758 11.6595 15.2669 11.8692 15.3601 11.9417C15.3423 11.724 15.4488 11.5748 15.4488 11.5748C15.4488 11.5748 15.4665 11.8167 15.5286 11.849C15.5863 11.8893 15.5863 11.462 15.9101 11.4942C16.2339 11.5345 16.469 11.5224 16.469 11.5224C16.469 11.5224 16.5754 12.353 16.5399 12.4336C16.3093 12.3812 15.7504 12.4537 15.7149 12.5828C16.0431 12.5626 16.194 12.5989 16.194 12.5989C16.194 12.5989 15.9278 12.8126 16.0121 12.9375Z" fill="black" stroke="black" stroke-width="0.82568" stroke-linecap="round" stroke-linejoin="round"/>
<path fill-rule="evenodd" clip-rule="evenodd" d="M16.1452 8.38574C16.1452 8.38574 15.3291 9.20013 15.6795 9.82504C15.7016 9.73634 15.6928 9.68393 15.7016 9.68796C15.6839 9.67587 15.8037 9.76053 15.7903 9.7444C15.7992 9.70006 15.7593 9.6033 15.7593 9.6033L15.8658 9.62749L15.8037 9.51863L15.9589 9.53879C15.9589 9.53879 15.9057 9.40172 15.9234 9.40172C15.9663 9.4038 16.0092 9.40649 16.052 9.40978C15.8214 9.03484 16.0387 8.7244 16.1408 8.38977L16.1452 8.38574Z" fill="#9CA69C" stroke="#9CA69C" stroke-width="0.82568" stroke-linecap="round" stroke-linejoin="round"/>
<path fill-rule="evenodd" clip-rule="evenodd" d="M16.4245 7.69238C16.4245 7.69238 16.4689 7.9746 16.3003 8.05523C16.2737 8.07136 16.1673 8.10361 16.1806 8.16005C16.2028 8.23665 16.2471 8.22053 16.3137 8.20843C16.4911 8.18021 16.6951 7.83752 16.4245 7.69238Z" fill="#9CA69C" stroke="#9CA69C" stroke-width="0.92889"/>
<path fill-rule="evenodd" clip-rule="evenodd" d="M16.1231 7.93035C16.1231 7.94639 16.116 7.96177 16.1036 7.97311C16.0911 7.98445 16.0742 7.99082 16.0565 7.99082C16.0389 7.99082 16.022 7.98445 16.0095 7.97311C15.997 7.96177 15.99 7.94639 15.99 7.93035C15.99 7.91431 15.997 7.89893 16.0095 7.88759C16.022 7.87624 16.0389 7.86987 16.0565 7.86987C16.0742 7.86987 16.0911 7.87624 16.1036 7.88759C16.116 7.89893 16.1231 7.91431 16.1231 7.93035Z" fill="white"/>
<path fill-rule="evenodd" clip-rule="evenodd" d="M15.8613 8.16406C15.817 8.19632 15.5952 8.40999 15.817 8.48659C16.0476 8.43015 15.9811 8.39387 16.0343 8.34549C16.0343 8.25276 15.919 8.22454 15.8613 8.16406Z" fill="#DE3108" stroke="black" stroke-width="0.92889"/>
<path fill-rule="evenodd" clip-rule="evenodd" d="M16.3537 10.1758C16.3404 10.2242 16.2916 10.3935 16.3626 10.5225C16.5577 10.4499 16.6464 10.4701 16.713 10.5104C16.5533 10.3895 16.4912 10.3451 16.3537 10.1758Z" fill="#9CA69C" stroke="#9CA69C" stroke-width="0.82568" stroke-linecap="round" stroke-linejoin="round"/>
<path fill-rule="evenodd" clip-rule="evenodd" d="M16.6907 10.9822L16.6995 11.3773C16.6995 11.3773 16.8548 11.4055 16.9213 11.3773C16.9923 11.3531 16.9213 11.1031 16.6907 10.9822Z" fill="white" stroke="white" stroke-width="0.82568" stroke-linecap="round" stroke-linejoin="round"/>
<path fill-rule="evenodd" clip-rule="evenodd" d="M17.7951 11.0306C17.7951 11.0306 17.5113 10.4138 16.7972 10.2565C16.083 10.0993 16.1718 9.40988 16.2294 9.36553C16.2605 9.30505 16.2826 9.21232 16.4911 9.30102C16.6996 9.38972 17.6488 9.82513 17.7863 9.84529C17.9238 9.86545 17.804 11.0467 17.7951 11.0306Z" fill="#9CA69C" stroke="black" stroke-width="0.92889"/>
<path fill-rule="evenodd" clip-rule="evenodd" d="M17.1122 10.2566C17.0989 10.2606 18.0703 10.7767 17.7775 11.2201C18.057 11.0549 17.9638 10.7605 17.9638 10.7605C17.9638 10.7605 18.19 11.2968 17.64 11.5588C17.7021 11.6072 17.7376 11.5951 17.7376 11.5951L17.6489 11.6798C17.6489 11.6798 17.6045 11.7443 17.9727 11.583C17.8707 11.6556 17.8618 11.708 17.8618 11.708C17.8618 11.708 17.8928 11.7805 18.1324 11.587C18.037 11.6723 17.9562 11.7702 17.8928 11.8773C18.4251 11.833 19.5695 10.2767 17.5336 9.81714L17.6223 9.90583L17.1122 10.2566Z" fill="#DE3108" stroke="black" stroke-width="0.82568" stroke-linejoin="round"/>
<path fill-rule="evenodd" clip-rule="evenodd" d="M17.152 10.1033C17.285 10.1839 17.3294 10.2162 17.3471 10.2565C17.2274 10.2323 17.1165 10.2404 17.1165 10.2404C17.1165 10.2404 16.8592 10.0146 16.8105 9.99848C16.775 9.99848 16.5709 9.87753 16.5709 9.87753C16.4689 9.83318 16.3758 9.51468 16.7484 9.60741C17.1387 9.77271 17.1919 9.7848 17.1919 9.7848L17.6532 9.91785L17.9193 10.188C17.9193 10.188 17.4447 9.97429 17.3871 9.97026C17.5201 10.067 17.5911 10.196 17.5911 10.196C17.4403 10.1557 17.3117 10.1235 17.152 10.1033Z" fill="white" stroke="black" stroke-width="0.82568" stroke-linecap="round" stroke-linejoin="round"/>
<path d="M15.3157 8.19622C15.3157 8.19622 15.7681 8.09946 15.8213 8.11558" stroke="white" stroke-width="0.82568" stroke-linecap="round"/>
<path fill-rule="evenodd" clip-rule="evenodd" d="M0 16.6667H33V20.0009H0V16.6667Z" fill="#DE3908"/>
</svg>
